<!-- icon666.com - MILLIONS OF FREE VECTOR ICONS --><svg id="Layer_1" enable-background="new 0 0 24 24" viewBox="0 0 24 24" xmlns="http://www.w3.org/2000/svg"><path d="m18 24h-12c-3.3 0-6-2.7-6-6v-12c0-3.3 2.7-6 6-6h12c3.3 0 6 2.7 6 6v12c0 3.3-2.7 6-6 6z" fill="#00adff" style="fill: rgb(82, 82, 82);"></path><path d="m12 3.8c4.5 0 8.2 3.7 8.2 8.2s-3.7 8.2-8.2 8.2-8.2-3.7-8.2-8.2h1.6c0 3.6 3 6.6 6.6 6.6s6.6-3 6.6-6.6-3-6.6-6.6-6.6c-2.1 0-3.9.9-5 2.4l1.7 1.7h-4.9v-4.9l2 2c1.5-1.7 3.7-2.8 6.2-2.8zm.8 4.1v3.8l2.6 2.6-1.1 1.1-3.1-3.1v-4.4z" fill="#fff"></path></svg>