<svg role="img" viewBox="0 0 200 200" xmlns="http://www.w3.org/2000/svg" id="Vaultwarden--Streamline-Simple-Icons" height="200" width="200">
  <desc>
    Vaultwarden Streamline Icon: https://streamlinehq.com
  </desc>
  <title>Vaultwarden</title>
  <path d="M96.167 3.733c-1.183 1.983 -2.775 4.367 -3.65 5.233 -1.425 1.508 -1.5 1.433 -6.108 -3.092 -5.558 -5.558 -6.433 -5.4 -9.05 1.75 -1.108 2.933 -2.458 5 -3.575 5.633 -1.583 0.792 -2.375 0.55 -6.342 -2.3 -6.667 -4.683 -7.858 -3.975 -9.133 5.158 -0.317 2.3 -0.95 3.967 -1.75 4.283 -0.633 0.242 -3.333 -0.558 -5.867 -1.833 -6.508 -3.083 -7.467 -2.375 -7.542 5.167 0 3.092 -0.4 6.033 -0.792 6.425 -0.558 0.558 -2.625 0.4 -6.508 -0.55 -7.625 -1.833 -8.1 -1.35 -6.275 6.267 0.95 3.892 1.108 5.958 0.558 6.508 -0.4 0.4 -3.333 0.792 -6.433 0.792 -7.617 0.083 -8.25 1.033 -5.083 7.542 3.1 6.508 2.308 8.417 -3.725 9.208 -8.892 1.275 -9.442 2.383 -4.525 8.967 3.967 5.25 3.733 6.033 -2.858 8.417 -7.058 2.7 -7.225 3.575 -1.667 9.125 4.525 4.608 4.608 4.683 3.1 6.117 -0.875 0.875 -3.25 2.458 -5.242 3.65 -4.917 2.858 -4.917 4.758 0 7.617 1.983 1.192 4.367 2.783 5.242 3.65 1.5 1.433 1.425 1.508 -3.1 6.117 -5.558 5.558 -5.392 6.425 1.75 9.05 2.933 1.108 5 2.458 5.633 3.567 0.792 1.583 0.558 2.383 -2.3 6.35 -4.683 6.667 -3.967 7.858 5.158 9.133 2.3 0.317 3.967 0.95 4.283 1.75 0.242 0.625 -0.55 3.333 -1.825 5.867 -3.092 6.508 -2.383 7.458 5.167 7.542 3.083 0 6.025 0.4 6.417 0.792 0.558 0.558 0.4 2.617 -0.55 6.508 -1.825 7.625 -1.35 8.1 6.275 6.275 3.883 -0.958 5.95 -1.117 6.5 -0.558 0.4 0.4 0.8 3.333 0.8 6.425 0.083 7.625 1.033 8.258 7.542 5.083 6.5 -3.092 8.417 -2.3 9.208 3.733 1.267 8.892 2.375 9.442 8.967 4.525 5.242 -3.975 6.033 -3.733 8.417 2.858 2.692 7.058 3.492 7.217 9.208 1.583 5.55 -5.4 5.075 -5.475 9.675 2.3 2.858 4.842 4.767 4.842 7.625 0 4.6 -7.775 4.125 -7.7 9.683 -2.3 5.717 5.633 6.5 5.475 9.125 -1.667 1.108 -2.933 2.458 -5 3.575 -5.633 1.583 -0.8 2.383 -0.558 6.35 2.3 6.667 4.683 7.858 3.967 9.125 -5.158 0.317 -2.3 0.95 -3.967 1.75 -4.283 0.633 -0.242 3.333 0.55 5.875 1.825 6.5 3.092 7.458 2.375 7.542 -5.167 0 -3.083 0.392 -6.025 0.792 -6.425 0.55 -0.558 2.617 -0.4 6.5 0.558 7.625 1.825 8.1 1.35 6.275 -6.275 -0.95 -3.892 -1.108 -5.95 -0.558 -6.5 0.4 -0.4 3.333 -0.8 6.433 -0.8 7.617 -0.083 8.25 -1.033 5.083 -7.542 -3.1 -6.5 -2.308 -8.417 3.725 -9.208 8.892 -1.267 9.45 -2.383 4.525 -8.967 -3.967 -5.242 -3.733 -6.033 2.858 -8.417 7.067 -2.7 7.225 -3.492 1.583 -9.208 -5.392 -5.55 -5.475 -5.083 2.308 -9.683 2.458 -1.5 3.65 -2.7 3.65 -3.808s-1.192 -2.3 -3.65 -3.808c-7.783 -4.6 -7.7 -4.125 -2.3 -9.683 5.633 -5.717 5.475 -6.508 -1.667 -9.125 -2.942 -1.117 -5 -2.467 -5.642 -3.575 -0.792 -1.583 -0.558 -2.383 2.3 -6.35 4.683 -6.667 3.975 -7.858 -5.158 -9.125 -2.3 -0.317 -3.967 -0.958 -4.283 -1.75 -0.242 -0.633 0.558 -3.333 1.825 -5.875 3.1 -6.5 2.383 -7.458 -5.158 -7.542 -3.092 0 -6.033 -0.392 -6.433 -0.792 -0.55 -0.55 -0.392 -2.617 0.558 -6.5 1.833 -7.625 1.35 -8.1 -6.267 -6.275 -3.892 0.95 -5.958 1.108 -6.508 0.55 -0.4 -0.392 -0.8 -3.333 -0.8 -6.425 -0.083 -7.625 -1.025 -8.25 -7.542 -5.083 -6.5 3.1 -8.417 2.308 -9.2 -3.725 -1.275 -8.892 -2.383 -9.45 -8.975 -4.525 -5.233 3.967 -6.033 3.725 -8.417 -2.858 -2.692 -7.067 -3.567 -7.225 -9.125 -1.667 -4.6 4.525 -4.683 4.6 -6.108 3.092 -0.875 -0.875 -2.458 -3.25 -3.65 -5.233C102.283 1.192 101.083 0 99.983 0c-1.117 0 -2.3 1.192 -3.808 3.733m7.783 16.108c0.875 0.875 1.583 2.625 1.583 3.967a6.333 6.333 0 0 1 -1.583 3.975c-3.417 3.417 -9.525 0.867 -9.525 -3.975 0 -3.017 2.542 -5.55 5.558 -5.55 1.35 0 3.092 0.708 3.967 1.583m-12.225 13.5c7.7 7.458 8.808 7.458 16.508 0l5.717 -5.558 5.558 1.583c6.35 1.75 16.192 5.958 16.192 6.983 0 0.317 -7.458 21.917 -16.583 47.867 -9.133 25.95 -17.075 48.65 -17.55 50.483 -0.558 1.9 -1.267 3.417 -1.583 3.417s-0.958 -1.358 -1.35 -2.942c-0.475 -1.667 -8.333 -24.525 -17.542 -50.883a5033.333 5033.333 0 0 1 -16.833 -48.25c0 -0.958 17.625 -7.783 21.358 -8.183 0.233 -0.083 2.933 2.383 6.108 5.475m-27.858 80c11.267 31.592 20.242 57.55 20 57.783 -0.558 0.642 -8.967 -1.825 -12.542 -3.725 -2.858 -1.433 -2.933 -1.583 -3.967 -8.333 -0.633 -4.367 -1.583 -7.542 -2.542 -8.817 -1.583 -1.983 -1.825 -1.983 -7.225 -1.425 -11.9 1.35 -11.425 1.5 -16.108 -4.767 -5.083 -6.75 -9.842 -16.192 -12.142 -24.208 -1.35 -4.442 -1.833 -8.883 -2.142 -17.458l-0.4 -11.508 7.142 -3.808c9.608 -5 9.842 -5.875 4.917 -15.642 -3.567 -7.058 -3.567 -6.667 1.042 -13.333 1.267 -1.908 2.617 -3.167 2.933 -2.775 0.317 0.317 9.758 26.425 21.033 58.017m98.5 -51.75 1.983 3.333 -3.25 6.433c-4.917 9.833 -4.683 10.717 4.833 15.717l7.067 3.725v8.975c0 10.392 -1.425 18.492 -4.833 27.142 -2.625 6.583 -7.867 15.317 -12.075 20.242l-2.692 3.167 -6.275 -0.942a75 75 0 0 0 -8.417 -0.958c-3.333 0 -5 2.942 -6.108 10.717l-1.033 6.908 -4.2 1.825c-4.842 2.142 -10.717 3.892 -11.275 3.25 -0.317 -0.317 33.417 -96.033 40.4 -114.767l0.792 -1.983 1.592 1.983c0.875 1.025 2.458 3.417 3.492 5.233M31.333 72.625c3.725 3.65 1.5 9.125 -3.733 9.125 -3.333 0 -5.4 -1.983 -5.4 -5.233 0 -5.242 5.483 -7.625 9.133 -3.892m143.5 -1.108c2.308 1.267 2.942 2.217 2.942 5 0 3.167 -2.067 5.233 -5.317 5.233 -5.317 0 -7.625 -5.392 -3.817 -9.125 2.15 -2.225 3.583 -2.458 6.192 -1.108zM60.3 159.617c2.858 6.833 -6.908 11.033 -10.083 4.292 -1.183 -2.467 -1.183 -2.858 0.083 -4.767 2.7 -4.125 8.25 -3.892 10 0.475zm88.025 -2.142c1.983 1.583 2.542 4.367 1.275 6.833 -3.258 6.342 -12.7 1.817 -9.925 -4.692 1.425 -3.567 5.558 -4.6 8.65 -2.142" fill="#000000" stroke-width="8.333333333333334"/>
</svg>
